
<svg width="5px" height="3px" viewBox="0 63 5 3" version="1.1" xmlns="http://www.w3.org/2000/svg" xmlns:xlink="http://www.w3.org/1999/xlink">
    <!-- Generator: Sketch 3.8.2 (29753) - http://www.bohemiancoding.com/sketch -->
    <desc>Created with Sketch.</desc>
    <defs></defs>
    <g id="select-caret" stroke="none" stroke-width="1" fill="none" fill-rule="evenodd" transform="translate(0.000000, 63.000000)">
        <path d="M4.89650171,0.108822526 C4.83482935,0.0470989761 4.76172355,0.0162627986 4.67725256,0.0162627986 L0.311843003,0.0162627986 C0.227337884,0.0162627986 0.154283276,0.0470989761 0.092559727,0.108822526 C0.0308361775,0.170614334 0,0.243668942 0,0.328122867 C0,0.412559727 0.0308361775,0.485614334 0.092559727,0.547354949 L2.27527304,2.73006826 C2.33706485,2.79179181 2.41011945,2.82269625 2.49455631,2.82269625 C2.57899317,2.82269625 2.65211604,2.79179181 2.7137884,2.73006826 L4.89650171,0.547337884 C4.958157,0.485614334 4.98911263,0.412559727 4.98911263,0.328105802 C4.98911263,0.243668942 4.958157,0.170614334 4.89650171,0.108822526 L4.89650171,0.108822526 Z" id="Shape" fill="#fff"></path>
    </g>
</svg>